<?xml version="1.0" standalone="no"?>
<svg xmlns="http://www.w3.org/2000/svg" version="1.2" baseProfile="tiny" width="256" height="187" viewBox="0 0 256 187">
<rect x="0" y="0" width="256" height="187" id="0" fill="rgb(110,90,66)" fill-opacity="1" />
<polygon points="85,72 224,0 0,0" id="1" fill="rgb(255,203,131)" fill-opacity="0.501961" />
<polygon points="143,187 127,9 256,61" id="2" fill="rgb(8,20,43)" fill-opacity="0.501961" />
<polygon points="71,187 155,110 84,107" id="3" fill="rgb(255,255,133)" fill-opacity="0.501961" />
<polygon points="0,185 62,62 69,187" id="4" fill="rgb(0,4,31)" fill-opacity="0.501961" />
<polygon points="68,187 75,146 119,187" id="5" fill="rgb(255,223,75)" fill-opacity="0.501961" />
<polygon points="256,187 176,41 256,39" id="6" fill="rgb(19,21,33)" fill-opacity="0.501961" />
<polygon points="193,99 213,187 240,164" id="7" fill="rgb(255,172,55)" fill-opacity="0.501961" />
<polygon points="1,92 192,42 0,163" id="8" fill="rgb(38,43,66)" fill-opacity="0.501961" />
<polygon points="249,11 95,8 219,36" id="9" fill="rgb(234,206,115)" fill-opacity="0.501961" />
<polygon points="89,71 1,27 138,39" id="10" fill="rgb(253,198,130)" fill-opacity="0.501961" />
<polygon points="247,71 123,10 104,33" id="11" fill="rgb(38,39,49)" fill-opacity="0.501961" />
<polygon points="198,140 115,187 153,69" id="12" fill="rgb(27,28,38)" fill-opacity="0.501961" />
<polygon points="142,187 168,187 190,144" id="13" fill="rgb(255,228,85)" fill-opacity="0.501961" />
<polygon points="81,130 118,154 147,96" id="14" fill="rgb(255,220,129)" fill-opacity="0.501961" />
<polygon points="148,0 41,58 19,0" id="15" fill="rgb(234,155,77)" fill-opacity="0.501961" />
<polygon points="34,1 0,91 -4,-14" id="16" fill="rgb(131,57,54)" fill-opacity="0.501961" />
<polygon points="198,23 58,81 236,83" id="17" fill="rgb(69,69,69)" fill-opacity="0.501961" />
<polygon points="194,121 183,187 205,167" id="18" fill="rgb(4,13,42)" fill-opacity="0.501961" />
<polygon points="98,172 148,187 166,97" id="19" fill="rgb(37,37,44)" fill-opacity="0.501961" />
<polygon points="117,88 128,90 73,134" id="20" fill="rgb(249,213,135)" fill-opacity="0.501961" />
<polygon points="227,37 237,0 153,0" id="21" fill="rgb(185,137,53)" fill-opacity="0.501961" />
<polygon points="0,56 71,60 0,187" id="22" fill="rgb(58,48,53)" fill-opacity="0.501961" />
<polygon points="204,25 149,6 137,16" id="23" fill="rgb(238,241,225)" fill-opacity="0.501961" />
<polygon points="134,41 123,55 61,42" id="24" fill="rgb(225,228,193)" fill-opacity="0.501961" />
<polygon points="192,187 243,153 256,187" id="25" fill="rgb(184,81,25)" fill-opacity="0.501961" />
<polygon points="106,18 11,23 27,58" id="26" fill="rgb(202,118,66)" fill-opacity="0.501961" />
<polygon points="256,163 216,140 252,44" id="27" fill="rgb(33,35,37)" fill-opacity="0.501961" />
<polygon points="83,118 105,187 68,167" id="28" fill="rgb(237,187,84)" fill-opacity="0.501961" />
<polygon points="193,49 163,41 218,16" id="29" fill="rgb(39,30,31)" fill-opacity="0.501961" />
<polygon points="186,162 183,145 160,187" id="30" fill="rgb(255,187,72)" fill-opacity="0.501961" />
<polygon points="204,9 182,12 152,0" id="31" fill="rgb(55,31,42)" fill-opacity="0.501961" />
<polygon points="74,187 134,187 64,166" id="32" fill="rgb(229,175,70)" fill-opacity="0.501961" />
<polygon points="128,39 141,9 103,31" id="33" fill="rgb(19,30,50)" fill-opacity="0.501961" />
<polygon points="107,97 131,92 138,85" id="34" fill="rgb(255,240,148)" fill-opacity="0.501961" />
<polygon points="92,52 93,0 127,0" id="35" fill="rgb(226,207,114)" fill-opacity="0.501961" />
<polygon points="207,147 196,187 166,187" id="36" fill="rgb(38,37,53)" fill-opacity="0.501961" />
<polygon points="193,44 207,87 94,64" id="37" fill="rgb(76,79,83)" fill-opacity="0.501961" />
<polygon points="140,40 85,10 92,22" id="38" fill="rgb(93,66,59)" fill-opacity="0.501961" />
<polygon points="217,160 197,105 193,118" id="39" fill="rgb(241,192,109)" fill-opacity="0.501961" />
<polygon points="71,187 0,121 0,187" id="40" fill="rgb(33,38,44)" fill-opacity="0.501961" />
<polygon points="182,30 136,0 208,21" id="41" fill="rgb(231,212,147)" fill-opacity="0.501961" />
<polygon points="146,67 207,157 139,132" id="42" fill="rgb(51,49,51)" fill-opacity="0.501961" />
<polygon points="216,35 205,0 233,8" id="43" fill="rgb(222,175,66)" fill-opacity="0.501961" />
<polygon points="35,64 62,80 33,85" id="44" fill="rgb(159,107,74)" fill-opacity="0.501961" />
<polygon points="97,102 132,139 72,162" id="45" fill="rgb(229,195,98)" fill-opacity="0.501961" />
<polygon points="179,7 209,0 161,0" id="46" fill="rgb(245,198,119)" fill-opacity="0.501961" />
<polygon points="99,166 118,175 99,155" id="47" fill="rgb(13,8,22)" fill-opacity="0.501961" />
<polygon points="73,125 6,117 171,28" id="48" fill="rgb(67,60,61)" fill-opacity="0.501961" />
<polygon points="38,0 95,38 81,0" id="49" fill="rgb(231,184,113)" fill-opacity="0.501961" />
<polygon points="228,184 211,108 206,187" id="50" fill="rgb(212,138,55)" fill-opacity="0.501961" />
<polygon points="101,61 137,44 132,38" id="51" fill="rgb(240,241,217)" fill-opacity="0.501961" />
<polygon points="122,10 132,0 158,2" id="52" fill="rgb(124,87,43)" fill-opacity="0.501961" />
<polygon points="77,137 61,184 54,65" id="53" fill="rgb(64,54,55)" fill-opacity="0.501961" />
<polygon points="138,106 131,133 81,121" id="54" fill="rgb(230,217,150)" fill-opacity="0.501961" />
<polygon points="0,93 23,0 0,0" id="55" fill="rgb(125,79,64)" fill-opacity="0.501961" />
<polygon points="57,57 102,20 107,53" id="56" fill="rgb(224,189,123)" fill-opacity="0.501961" />
<polygon points="206,14 189,1 206,20" id="57" fill="rgb(32,22,33)" fill-opacity="0.501961" />
<polygon points="256,187 212,129 241,143" id="58" fill="rgb(91,60,41)" fill-opacity="0.501961" />
<polygon points="142,22 163,17 134,0" id="59" fill="rgb(226,208,187)" fill-opacity="0.501961" />
<polygon points="256,178 248,40 183,36" id="60" fill="rgb(49,43,43)" fill-opacity="0.501961" />
<polygon points="82,79 52,54 14,60" id="61" fill="rgb(41,42,51)" fill-opacity="0.501961" />
<polygon points="256,0 232,0 231,40" id="62" fill="rgb(100,86,32)" fill-opacity="0.501961" />
</svg>